<svg width="24" height="24" viewBox="0 0 24 24" fill="none" xmlns="http://www.w3.org/2000/svg">
    <path d="M7.9536 7.40839C8.81084 7.40099 9.66185 7.55642 10.4626 7.86664C9.8737 4.87187 8.96544 3.04023 7.94868 3.0416H7.94757C6.93106 3.04359 6.02796 4.8771 5.44659 7.87262C6.24626 7.56062 7.09668 7.40315 7.9536 7.40839Z" fill="white"/>
    <path d="M6.7192 21.5652C7.04559 23.6169 7.50703 24.0007 8.01713 24C8.52723 23.9993 8.98547 23.6141 9.30744 21.5618L6.7192 21.5652Z" fill="white"/>
    <path d="M11.1588 15.7284C11.1058 14.1955 11.0011 12.5846 10.8294 10.9042C10.7414 10.043 10.6409 9.20475 10.5277 8.38949C8.872 7.74152 7.037 7.7437 5.38274 8.39559C5.27238 9.21865 5.17408 10.0648 5.08781 10.934C4.92068 12.6271 4.81992 14.2507 4.77027 15.7964C3.3411 16.867 2.35432 18.8977 2.35764 21.5617L4.73267 21.5586C5.16719 21.5586 5.42587 21.4466 5.42587 20.9975L5.4244 20.9891L10.6006 20.9825C10.6006 21.4579 10.8491 21.5509 11.2855 21.5503L13.6695 21.5473C13.6658 18.8324 12.635 16.7668 11.1588 15.7284ZM7.95561 9.17279C8.15093 9.17253 8.34194 9.23094 8.50448 9.34064C8.66704 9.45034 8.79382 9.60643 8.86881 9.78914C8.94379 9.97184 8.96361 10.173 8.92576 10.3671C8.88791 10.5612 8.79409 10.7396 8.65615 10.8797C8.51822 11.0198 8.34238 11.1153 8.15087 11.1542C7.95935 11.193 7.76076 11.1734 7.58022 11.098C7.39967 11.0225 7.24529 10.8944 7.13657 10.7301C7.02786 10.5657 6.96969 10.3723 6.96945 10.1745C6.96915 9.90916 7.07288 9.65461 7.25781 9.46678C7.44274 9.27893 7.69374 9.17319 7.95561 9.17279ZM7.95979 12.4319C8.15508 12.4316 8.34606 12.49 8.50856 12.5998C8.67108 12.7095 8.79783 12.8655 8.87279 13.0482C8.94774 13.2309 8.96754 13.432 8.92968 13.6261C8.89182 13.8202 8.798 13.9985 8.66008 14.1385C8.52217 14.2787 8.34634 14.3742 8.15486 14.413C7.96337 14.4519 7.76481 14.4322 7.5843 14.3568C7.40378 14.2813 7.24941 14.1533 7.14071 13.9889C7.03202 13.8246 6.97387 13.6312 6.97363 13.4334C6.97333 13.1681 7.07706 12.9135 7.26199 12.7258C7.44694 12.5379 7.69793 12.4322 7.95979 12.4319ZM7.96643 17.6916C7.77113 17.6919 7.58017 17.6335 7.41765 17.5237C7.25515 17.414 7.12839 17.258 7.05344 17.0753C6.97848 16.8927 6.95868 16.6915 6.99654 16.4974C7.03441 16.3033 7.12823 16.125 7.26614 15.9849C7.40406 15.8448 7.57987 15.7493 7.77137 15.7105C7.96285 15.6716 8.16141 15.6912 8.34192 15.7668C8.52244 15.8422 8.67681 15.9702 8.7855 16.1346C8.89421 16.299 8.95236 16.4923 8.95259 16.6901C8.95275 16.8214 8.92737 16.9515 8.8779 17.073C8.82841 17.1944 8.75581 17.3048 8.66422 17.3978C8.57264 17.4908 8.46387 17.5647 8.34412 17.6151C8.22436 17.6655 8.09611 17.6915 7.96643 17.6916Z" fill="white"/>
    <path d="M7.95655 9.58997C7.80533 9.5924 7.66113 9.65501 7.55511 9.76426C7.44908 9.87353 7.38975 10.0207 7.38995 10.1739C7.39015 10.3271 7.44984 10.4741 7.55614 10.5831C7.66244 10.6921 7.8068 10.7543 7.95803 10.7563C8.1107 10.7561 8.25705 10.6945 8.36487 10.585C8.47269 10.4755 8.53315 10.3271 8.53295 10.1724C8.53276 10.0177 8.47191 9.86947 8.36382 9.76025C8.25573 9.65103 8.10923 9.58977 7.95655 9.58997Z" fill="white"/>
    <path d="M7.95948 12.849C7.80826 12.8514 7.66405 12.914 7.55803 13.0233C7.45201 13.1326 7.39268 13.2798 7.39288 13.4329C7.39308 13.5862 7.45276 13.7332 7.55907 13.8421C7.66537 13.9512 7.80974 14.0134 7.96096 14.0154C8.11365 14.0153 8.26002 13.9537 8.36787 13.8441C8.47573 13.7347 8.53623 13.5862 8.53607 13.4315C8.5359 13.2768 8.47509 13.1285 8.367 13.0193C8.25892 12.91 8.11217 12.8489 7.95948 12.849Z" fill="white"/>
    <path d="M7.96437 16.1082C7.81315 16.1106 7.66894 16.1732 7.56292 16.2825C7.4569 16.3918 7.39757 16.539 7.39777 16.6921C7.39795 16.8453 7.45766 16.9924 7.56396 17.1013C7.67025 17.2103 7.81462 17.2726 7.96584 17.2746C8.11852 17.2743 8.26486 17.2128 8.3727 17.1033C8.48053 16.9937 8.541 16.8453 8.54083 16.6907C8.54065 16.5361 8.47983 16.3878 8.37174 16.2785C8.26366 16.1693 8.11704 16.1081 7.96437 16.1082Z" fill="white"/>
    <path d="M11.073 7.79767C10.5863 5.3234 9.6491 2.37295 7.94663 2.37295H7.92979C6.56944 2.38901 5.52674 4.21654 4.83035 7.80501L4.82887 7.81273L4.63422 8.9349C4.55545 9.44245 4.4854 9.9693 4.42531 10.5055C4.41336 10.6121 4.40175 10.7196 4.39054 10.8279C4.31607 11.5472 4.25745 12.3026 4.21567 13.0782C4.00492 12.9135 3.80466 12.7355 3.6161 12.5452C2.72255 11.6411 2.12314 10.4819 1.89825 9.22301C1.67336 7.9641 1.83371 6.66563 2.35783 5.50166C2.88194 4.33767 3.74477 3.36383 4.83063 2.71064C5.91649 2.05746 7.17351 1.75618 8.43318 1.84716C9.69284 1.93813 10.895 2.41704 11.8784 3.21968C12.8618 4.02232 13.5795 5.11032 13.9353 6.33786C14.2911 7.56538 14.268 8.87378 13.8691 10.0876C13.4701 11.3015 12.7145 12.3628 11.7034 13.1293C11.6596 12.3338 11.5978 11.5581 11.5191 10.8188C11.5075 10.7109 11.4957 10.6035 11.4835 10.4964C11.4221 9.96108 11.3513 9.43411 11.2712 8.9278L11.073 7.79767Z" fill="white"/>
    <path d="M7.98595 5.4046e-06C6.21764 0.00483311 4.50062 0.602508 3.10284 1.69977C1.70504 2.79704 0.705086 4.33217 0.258991 6.06565C-0.187103 7.79914 -0.0542457 9.63346 0.636835 11.2824C1.32791 12.9313 2.53835 14.3022 4.07927 15.181C4.09565 14.8433 4.11384 14.5093 4.13383 14.1792C3.20183 13.5691 2.42243 12.7481 1.85699 11.7808C1.21798 10.684 0.87663 9.4355 0.867571 8.16194C0.858511 6.88839 1.18206 5.63506 1.80541 4.52905C2.42876 3.42304 3.32972 2.50371 4.41695 1.86426C5.50417 1.22482 6.73899 0.888023 7.99615 0.888023C9.25332 0.888023 10.4881 1.22482 11.5754 1.86426C12.6625 2.50371 13.5635 3.42304 14.1869 4.52905C14.8102 5.63506 15.1338 6.88839 15.1247 8.16194C15.1157 9.4355 14.7743 10.684 14.1353 11.7808C13.555 12.7735 12.7496 13.6117 11.7857 14.2262C11.8057 14.5546 11.8242 14.8862 11.8411 15.2212C13.4007 14.3556 14.6314 12.9886 15.339 11.3359C16.0466 9.6831 16.1908 7.8387 15.7488 6.0937C15.3069 4.3487 14.3039 2.80247 12.8982 1.69901C11.4926 0.595543 9.76426 -0.00207332 7.98595 5.4046e-06Z" fill="white"/>
</svg>
