<svg width="100" height="100" viewBox="0 0 100 100" fill="none" xmlns="http://www.w3.org/2000/svg">
    <rect width="100" height="100" rx="16" fill="url(#paint0_linear_2306_2)"/>
    <path d="M49.8434 34.6946C52.7366 34.67 55.6088 35.1881 58.3112 36.2221C56.3237 26.2396 53.2584 20.1341 49.8268 20.1387H49.8231C46.3923 20.1453 43.3444 26.257 41.3822 36.2421C44.0811 35.2021 46.9513 34.6772 49.8434 34.6946Z" fill="white"/>
    <path d="M45.6773 81.884C46.7789 88.7231 48.3362 90.0025 50.0578 90C51.7794 89.9975 53.326 88.7136 54.4126 81.8728L45.6773 81.884Z" fill="white"/>
    <path d="M60.6609 62.428C60.4821 57.3185 60.1287 51.9487 59.5493 46.3474C59.2524 43.4767 58.913 40.6825 58.5312 37.965C52.943 35.8051 46.7499 35.8123 41.1667 37.9853C40.7943 40.7288 40.4625 43.5492 40.1714 46.4466C39.6073 52.0902 39.2672 57.5023 39.0997 62.6546C34.2762 66.2234 30.9458 72.9924 30.957 81.8724L38.9728 81.862C40.4393 81.862 41.3123 81.4885 41.3123 79.9917L41.3073 79.9635L58.7771 79.9415C58.7771 81.5263 59.6157 81.8363 61.0884 81.8342L69.1344 81.8242C69.122 72.7745 65.6431 65.8893 60.6609 62.428ZM49.8502 40.576C50.5094 40.5751 51.1541 40.7698 51.7026 41.1355C52.2513 41.5011 52.6791 42.0214 52.9322 42.6305C53.1853 43.2395 53.2522 43.9099 53.1244 44.557C52.9967 45.204 52.6801 45.7986 52.2145 46.2656C51.749 46.7326 51.1555 47.051 50.5092 47.1805C49.8628 47.31 49.1926 47.2448 48.5832 46.9932C47.9739 46.7416 47.4529 46.3148 47.0859 45.7669C46.719 45.2189 46.5227 44.5744 46.5219 43.9149C46.5209 43.0305 46.871 42.182 47.4951 41.5559C48.1193 40.9298 48.9664 40.5773 49.8502 40.576ZM49.8643 51.4396C50.5234 51.4387 51.1679 51.6334 51.7164 51.9994C52.2649 52.365 52.6927 52.8849 52.9457 53.4941C53.1986 54.1029 53.2655 54.7735 53.1377 55.4204C53.0099 56.0673 52.6932 56.6616 52.2278 57.1284C51.7623 57.5957 51.1689 57.914 50.5227 58.0434C49.8764 58.1729 49.2062 58.1073 48.597 57.8559C47.9877 57.6044 47.4667 57.1778 47.0999 56.6296C46.7331 56.0819 46.5368 55.4374 46.536 54.778C46.535 53.8937 46.8851 53.0451 47.5092 52.4193C48.1334 51.7931 48.9805 51.4408 49.8643 51.4396ZM49.8867 68.9721C49.2276 68.973 48.5831 68.7783 48.0346 68.4123C47.4861 68.0467 47.0583 67.5268 46.8054 66.9176C46.5524 66.3088 46.4856 65.6383 46.6133 64.9913C46.7411 64.3444 47.0578 63.7501 47.5232 63.2829C47.9887 62.816 48.5821 62.4977 49.2284 62.3683C49.8746 62.2388 50.5448 62.3039 51.154 62.5558C51.7632 62.8073 52.2842 63.2339 52.6511 63.7821C53.0179 64.3298 53.2142 64.9743 53.215 65.6337C53.2155 66.0715 53.1299 66.5051 52.9629 66.9101C52.7959 67.3147 52.5509 67.6828 52.2418 67.9928C51.9326 68.3028 51.5656 68.5489 51.1614 68.7169C50.7572 68.885 50.3244 68.9717 49.8867 68.9721Z" fill="white"/>
    <path d="M49.8534 41.9666C49.343 41.9747 48.8563 42.1834 48.4985 42.5475C48.1406 42.9118 47.9404 43.4022 47.9411 43.913C47.9417 44.4237 48.1432 44.9136 48.502 45.2769C48.8607 45.6402 49.348 45.8476 49.8583 45.8545C50.3736 45.8538 50.8675 45.6483 51.2314 45.2833C51.5953 44.9183 51.7994 44.4236 51.7987 43.908C51.7981 43.3925 51.5927 42.8982 51.2279 42.5342C50.8631 42.1701 50.3686 41.9659 49.8534 41.9666Z" fill="white"/>
    <path d="M49.8633 52.8301C49.3529 52.838 48.8662 53.0467 48.5083 53.4111C48.1505 53.7754 47.9503 54.2659 47.951 54.7763C47.9516 55.2872 48.1531 55.7773 48.5119 56.1404C48.8706 56.5039 49.3579 56.7114 49.8682 56.718C50.3836 56.7176 50.8776 56.5122 51.2416 56.147C51.6056 55.7822 51.8098 55.2872 51.8092 54.7718C51.8086 54.256 51.6034 53.7617 51.2386 53.3978C50.8739 53.0335 50.3786 52.8297 49.8633 52.8301Z" fill="white"/>
    <path d="M49.8797 63.6941C49.3694 63.702 48.8827 63.9107 48.5249 64.275C48.167 64.6394 47.9668 65.1299 47.9675 65.6403C47.9681 66.1511 48.1696 66.6412 48.5284 67.0043C48.8871 67.3678 49.3743 67.5753 49.8847 67.582C50.4 67.5811 50.8939 67.3761 51.2579 67.011C51.6218 66.6458 51.8259 66.1511 51.8253 65.6357C51.8247 65.1203 51.6194 64.6261 51.2546 64.2618C50.8899 63.8978 50.395 63.6937 49.8797 63.6941Z" fill="white"/>
    <path d="M60.3713 35.9922C58.7289 27.7447 55.5657 17.9098 49.8199 17.9098H49.763C45.1718 17.9634 41.6528 24.0551 39.3024 36.0167L39.2974 36.0424L38.6405 39.783C38.3746 41.4748 38.1382 43.231 37.9354 45.0183C37.8951 45.3738 37.8559 45.732 37.8181 46.0931C37.5667 48.4908 37.3689 51.0088 37.2279 53.5941C36.5166 53.0451 35.8407 52.4517 35.2044 51.8172C32.1886 48.8037 30.1656 44.9397 29.4066 40.7434C28.6476 36.547 29.1888 32.2188 30.9577 28.3389C32.7266 24.4589 35.6386 21.2128 39.3034 19.0355C42.9682 16.8582 47.2106 15.8539 51.462 16.1572C55.7133 16.4604 59.7705 18.0568 63.0895 20.7323C66.4087 23.4077 68.8308 27.0344 70.0315 31.1262C71.2326 35.2179 71.1546 39.5793 69.8083 43.6254C68.4617 47.6716 65.9114 51.2093 62.4989 53.7642C62.3513 51.1126 62.1427 48.5269 61.8768 46.0628C61.8378 45.7031 61.7979 45.3449 61.757 44.988C61.5496 43.2036 61.3107 41.447 61.0403 39.7593L60.3713 35.9922Z" fill="white"/>
    <path d="M49.9526 10C43.9845 10.0161 38.1896 12.0084 33.4721 15.6659C28.7545 19.3235 25.3797 24.4406 23.8741 30.2188C22.3685 35.9971 22.8169 42.1115 25.1493 47.608C27.4817 53.1044 31.5669 57.6741 36.7675 60.6034C36.8228 59.4776 36.8842 58.3642 36.9517 57.2641C33.8062 55.2303 31.1757 52.4936 29.2673 49.2693C27.1107 45.6133 25.9586 41.4517 25.9281 37.2065C25.8975 32.9613 26.9895 28.7835 29.0933 25.0968C31.1971 21.4101 34.2378 18.3457 37.9072 16.2142C41.5766 14.0827 45.7441 12.9601 49.987 12.9601C54.23 12.9601 58.3974 14.0827 62.0668 16.2142C65.736 18.3457 68.7769 21.4101 70.8809 25.0968C72.9845 28.7835 74.0765 32.9613 74.0458 37.2065C74.0155 41.4517 72.8633 45.6133 70.7067 49.2693C68.7483 52.5782 66.0301 55.3722 62.7768 57.4206C62.8443 58.5152 62.9066 59.6207 62.9639 60.7374C68.2274 57.8521 72.381 53.2953 74.7691 47.7863C77.1572 42.277 77.6441 36.129 76.1523 30.3123C74.6608 24.4957 71.2757 19.3416 66.5315 15.6634C61.7875 11.9851 55.9544 9.99309 49.9526 10Z" fill="white"/>
    <defs>
        <linearGradient id="paint0_linear_2306_2" x1="50" y1="0" x2="50" y2="100" gradientUnits="userSpaceOnUse">
            <stop stop-color="#545454"/>
            <stop offset="1"/>
        </linearGradient>
    </defs>
</svg>
